<?xml version="1.0" encoding="UTF-8"?>
<svg version="1.1" viewBox="0 0 1024 1024" width="500" height="500" xmlns="http://www.w3.org/2000/svg">
<path transform="translate(462,30)" d="m0 0h60l33 3 34 6 35 9 32 11 12 5 24 11 19 10 14 8 19 12 17 12 17 13 11 10 8 7 10 9 14 14 7 8 10 11 11 14 10 13 10 15 10 16 11 19 15 30 12 31 7 21 10 39 4 23 4 38v60l-5 44-6 29-7 26-10 30-13 31-8 16-10 18-13 21-14 20-14 18-12 14-11 12-23 23-11 9-9 8-17 13-19 13-16 10-21 12-22 11-19 8-19 7-18 6-29 8-39 7-25 3-13 1h-52l-31-3-24-4-25-5-32-9-31-11-26-12-14-7h-7l-60 20-141 46-33 10-11 4-2-1 6-20 9-26 12-36 19-55 7-21 10-29 11-32 5-16v-8l-11-19-12-23-8-18-13-35-8-28-8-38-4-32-1-12v-53l4-40 4-22 6-27 11-36 12-30 13-27 11-20 13-21 8-11 7-10 12-15 9-11 15-16 7-8 8-7 6-6h2v-2l11-9 4-2 1-3 11-8 13-10 15-10 13-8 15-9 32-16 19-8 18-7 18-6 35-9 34-6z" fill="#ECF0F3"/>
<path transform="translate(462,30)" d="m0 0h60l33 3 34 6 35 9 32 11 12 5 24 11 19 10 14 8 19 12 17 12 17 13 11 10 8 7 10 9 14 14 7 8 10 11 11 14 10 13 10 15 10 16 11 19 15 30 12 31 7 21 10 39 4 23 4 38v60l-5 44-6 29-7 26-10 30-13 31-8 16-10 18-13 21-14 20-14 18-12 14-11 12-23 23-11 9-9 8-17 13-19 13-16 10-21 12-22 11-19 8-19 7-18 6-29 8-39 7-25 3-13 1h-52l-31-3-24-4-25-5-32-9-31-11-26-12-14-7h-7l-60 20-141 46-33 10-11 4-2-1 6-20 9-26 12-36 19-55 7-21 10-29 11-32 5-16v-8l-11-19-12-23-8-18-13-35-8-28-8-38-4-32-1-12v-53l4-40 4-22 6-27 11-36 12-30 13-27 11-20 13-21 8-11 7-10 12-15 9-11 15-16 7-8 8-7 6-6h2v-2l11-9 4-2 1-3 11-8 13-10 15-10 13-8 15-9 32-16 19-8 18-7 18-6 35-9 34-6zm13 75-28 2-23 3-16 4-23 6-8 3-10 3-13 6-17 7-21 11-24 15-18 13-13 11-11 9-26 26-9 11-12 15-11 16-9 14-11 19-8 16-11 26-10 30-5 19-6 31-3 26-1 15v29l2 27 4 27 6 29 9 29 9 24 13 28 13 22 7 11 4 6v6l-14 41-17 51-5 16-7 20-1 7 5-1 26-8 38-12 21-7 13-4 33-11h7l26 15 23 12 25 11 35 10 22 5 20 3 28 2h39l29-2 18-3 30-8 23-7 9-4 12-5 25-12 19-11 14-9 20-15 10-8 20-18 13-13 7-8 10-12 9-12 13-19 13-22 10-19 10-23 7-19 10-34 5-27 3-21 2-29v-24l-2-27-3-23-4-24-5-18-6-20-9-24-13-28-11-20-11-17-10-14-11-14-11-13-14-15-3-1-2-4-13-12-14-11-18-13-15-10-19-11-13-7h-3v-2l-9-2v-2l-16-6-27-9-33-8-19-3-17-2-16-1z" fill="#FBFBFA"/>
<path transform="translate(477,130)" d="m0 0h19l25 2 20 3 21 4 7 2 15 5 5 1v2l10 2 16 7 16 8 15 9 15 10 18 14 13 12 17 17 9 11 11 15 12 19 10 19 7 17 6 17 6 24 2 10 2 17v50l-5 30-4 16-6 20-5 11-4 10-4-1-7-5-9-3-5-1h-27l-16 3 2-4 9-11 13-15 2-3h2l2-4 18-22h2l2-4 7-8 5-6v-5l-14-23-7-11-1-1-7 1-38 13-9 2 3-9 15-29 10-19 13-26 10-19-1-4-10-8-15-11v-2h3l-2-6-2-3-6-20-3-5-4-11-7-13v-2h-2l-4-5-5-5-9-7-4-2v-2h-2v-2l-6-2-11-7-11-6-16-8-11-5-15-6-12-4-15-4-18-4-29-4-4 1-1-1v-5h-4v173h7v-150l5 5 12 13 8 10 5 4v2h2l7 8 13 12 12 10 11 8 12 7 3 1-2 14-8 49-1 13 3 16 4 19 1 2 5-15 6-21 6-20 5-15 25-9 30-10 4-1 8 6 10 7v2l5 2 13 10 2 1v2l4 2 6 4-2 5-6 12-9 17-8 16-3 7h-2l-2 6-20 40-10 19-9 17-15 30-8 15-14 4-1 7 1 15h-5l-2-13-3-2-26 1 2-10 1-2-13-1-2-1-3 12-2 3-5-1-7-5-5-2-9 1 2-4-10-1h-13l-16 3-10 3-11 6-7 6h-2l-2 4-7 10-4 11-14-7-5-1h-10l-11 3-5 1-2-18-1-5h-15l-23 1-8-19-20-48-5-11-4-11-5-10-4-11-5-12-11-25-5-13-4-9-5-12-6-15-3-9 15-11 22-15 7-5 8 1 18 6 17 5 16 5 3 1 4 14 5 21 1 10 9-1 4-1-5-43-2-13-2-17-3-25-1-5v-11l17-9 16-11 13-11 8-7 17-17 9-11 6-7h-5l-5 5h-3l-16 1-26 4-9 3-17 5-8 3h-4l-1 2-5 2-12 4-1 2-19 9-9 6-6 3-5 3-12 8-6 5-2 1v2h-3v2h-3l-1 2-2 2-2 1-1 4-3 3-6 10-8 18-5 16-5 15-2 12-1 2-1 9h-2l-1 13-2 27-1 6v32l1 1 3-3-1 5-10 14-1 2h-2l-2 5-8 11-2 3 1 4 11 15 12 16 11 15 14 19 16 22 9 12 1 3-20 3-13 5-10 8-6 9-2 7-1 11-3-1-5-7v-2h-2l-12-17-6-10-12-24-8-19-3-9-7-24-1-6v-10h-2l-2-18v-43l3-23 3-14 2-6 2-11 6-16 4-10 4-6 3-9 5-10h2l2-5 3-8h2l2-4 7-11 3-1 1-4 6-8h2l3-6h2l3-6h2l2-4 10-10 8-7 14-11 13-10 8-4h2l1-3 7-2v-2l7-3h2v-2l10-5 10-3v-2l13-4h3v-2h5v-2l13-4 1-1 17-3 15-4 11-2 15-2z" fill="#263A80"/>
<path transform="translate(475,105)" d="m0 0h31l16 1 31 4 30 7 24 7 23 9 4 1v2l9 2v2l4 1 23 12 20 13 14 10 13 10 11 9 12 11v2l4 2 8 8 7 8 11 13 15 20 13 20 10 17 11 23 7 16 8 21 10 36 6 37 2 20 1 17v24l-2 29-6 39-7 27-10 30-9 21-11 23-13 22-15 22-14 18-11 12-7 8-14 14-8 7-13 11-9 6-9 7-10 7-15 9-22 12-16 8-17 6-7 3-26 8-28 7-13 2-29 2h-39l-28-2-30-5-30-8-19-6-25-11-25-13-17-10-5-3h-7l-40 13-9 3-65 21-17 5-5 1 2-9 7-22 5-16 10-28 14-43 6-17v-6l-9-14-9-15-7-12-14-31-9-25-8-27-7-36-3-26-1-17v-29l3-34 3-18 6-28 9-30 8-21 7-16 8-16 9-16 9-14 11-16 10-13 12-14 7-8 22-22 11-9 15-12 20-14 22-13 19-10 27-11 9-3 3-2 30-8 16-4 33-4zm-3 20-18 1-12 2-16 3-21 5-24 8-24 10-15 8-10 5-21 14-12 9-10 8-8 8-8 7-9 10-9 11-6 7-10 15-5 8-10 17-9 20-10 27-6 25-3 21-1 23v14l1 19 4 26 5 21 8 23 5 12h2l1 6 12 22h2l3 9 4 5 4 6 9 11 8 7 3 13 2 26 4 16 6 9 10 8 11 4 6 1 22 1 1 24 1 4 3 46 2 51 3 6 6 3 37-1 5-4 1-3 1-11 10 3h11l11-3 10-9 3-4 3-10 2 2 4 9 4 5 8 4 7 2h12l14-4h27l4-1 13-1 5-5 1-17h2l2 6 7 6 10 7 12 3h29l13-4 7-5v-2l5-1 6-7 4 1 7 7 12 5 13 3h10l21-3 14-5 10-9 4-6 1-4v-23l-4-11-6-7-14-9h-2l1-2 14-1 4-2 2-4v-12l-4-12-4-5-9-6-11-4-11-2h-13l-21 3 1-4 2-1 13-2 5-3 3-6 4 2 3 3h4v2l10 3h9l16-4h13l5-1 21-1 6-3 3-5-1-15-2-28-1-4-1-16-1-4-1-15-3-11v-6l9-20 8-25 5-21 2-12 1-14v-48l-3-24-5-21-5-16-8-21-11-23-3-1-1-5-10-16-12-16-9-11-6-5-9-11-14-12-10-9-18-12-17-11-26-13-15-6-19-7-16-4-22-5-21-3-15-1z" fill="#3590B1"/>
<path transform="translate(667,266)" d="m0 0 4 1 14 10 3 2v2l5 2 13 10 2 1v2l4 2 6 4-2 5-6 12-9 17-8 16-3 7h-2l-2 6-20 40-10 19-9 17-15 30-8 15-14 4-1 7 1 15h-5l-2-13-3-2-26 1 2-10 1-2-13-1-2-1-3 12-2 3-5-1-3-5-19-7h-31l-2-13 1-1-9-3v-4l11-2h9l-3 5h-2v2l5-4 3-5 21-4 9-1 1-1 15-2 23-4 13-2 1-1 7-1 1-1v-5l-2-4v-10l-3-12-3-16-2-12-1-2-1-9-2-9-1-6 4-11 8-27 6-20 5-15 25-9 30-10z" fill="#0B62A5"/>
<path transform="translate(552,325)" d="m0 0 5 1 5 25 8 42 6 31-1 4-28 5-30 5-38 7-20 3-32 6-16 2-2-5-8-42-7-36-3-14v-6l7-1 80-14 46-8z" fill="#F9FAFA"/>
<path transform="translate(472,141)" d="m0 0 4 1-3 5h-3-9l-34 5-9 3-17 5-8 3h-4l-1 2-5 2-12 4-1 2-19 9-9 6-6 3-5 3-12 8-6 5-2 1v2h-3v2h-3l-1 2-2 2-2 1-1 4-3 3-6 10-8 18-5 16-5 15-2 12-1 2-1 9h-2l-1 13-2 27-1 6v32l1 1 3-3-1 5-10 14-1 2h-2l-2 5-8 11-2 3 1 4 11 15 12 16 11 15 14 19 16 22 9 12 1 3-20 3-13 5-10 8-6 9-2 4-3-5-9-13-11-18-3-6-1-3h-2l-3-10-5-12-7-21-4-16-2-10-2-14-1-20v-14l1-19 3-19 4-18 6-20 10-24 11-21 14-21 11-14 12-13 14-14 11-9 13-10 15-10 18-10 21-10 25-9 21-6 29-5z" fill="#387CBC"/>
<path transform="translate(499,141)" d="m0 0 25 2 23 4 24 6 23 8 26 12 21 12 16 11 11 9 13 11 13 13 7 8 12 15 12 18 9 16 8 16 9 24 5 18 4 21 3 19v35l-1 2-3 25-6 26-7 20-5 12-2 3-9-2-5-1h-27l-16 3 2-4 9-11 13-15 2-3h2l2-4 18-22h2l2-4 7-8 5-6v-5l-14-23-7-11-1-1-7 1-38 13-9 2 3-9 15-29 10-19 13-26 10-19-1-4-10-8-15-11v-2h3l-2-6-2-3-6-20-3-5-4-11-7-13v-2h-2l-4-5-5-5-9-7-4-2v-2h-2v-2l-6-2-11-7-11-6-16-8-11-5-15-6-12-4-15-4-18-4-29-4-4 1-1-1z" fill="#5D8CC5"/>
<path transform="translate(396,650)" d="m0 0h6l7 3 4 1 4 4v2l3 1v4h2l2 8 2 25v16h2l1 13v15l-1 6h-2l-1 6-4 6-3 3-7 3-12 1-14-4-2-4-6-3 1 9 1 3v13l-38 1-5-67-1-20-2-7-1-17 1-12 1-1 33-2 3 2v6l6-5h5l1-3 4-2 1-2z" fill="#7FC527"/>
<path transform="translate(655,365)" d="m0 0 9 1 6 1 1 3 3-4h2v5h4l1-2-1 5-9 17-6 12-3 9-15 29-15 30-8 15-14 4-1 7 1 15h-5l-2-13-3-2-26 1 2-10 1-2-13-1-2-1-3 12-2 3-5-1-3-5-19-7h-31l-2-13 1-1-9-3v-4l11-2h9l-3 5h-2v2l5-4 3-5 21-4 9-1 1-1 15-2 23-4 13-2 1-1 7-1 1-1v-5l-2-4v-10l-3-12-3-16-1-3v-13l4 1-2-4h11l1 2-1 2 4 1-1-5h12l3 2 12 2v3h3v-3l-2-1 1-3 1 2h2l1-3 3 2 4-2v2h-2l1 2 2-2z" fill="#097EBE"/>
<path transform="translate(388,507)" d="m0 0h11l3 31 4-5 6-4 13-3 9 1 7 3 6 5 5 10 3 28 3 30 2 34-19 2h-19l-2-17-5-53-1-14-3-4h-5l-2 3 1 19 5 54v14l-28 2h-10l-3-34-3-29-3-38-2-16v-17z" fill="#0E2373"/>
<path transform="translate(326,365)" d="m0 0h11l4 15 1-2 2 4 4-2 5 1h15l3 10 2 1 4 17 1 9 2 8 4 22 2 10 1 4v7h2l3 5 2 1v2l4 1h16l1-1 22-3 8-2 21-3 17-3h3l5 5 5 1 2 10v5l-18 6-11 7-3 1v2h-2l-1 5-7 9-5 13-14-7-5-1h-10l-11 3-5 1-2-18-1-5h-15l-23 1-8-19-20-48-5-11-4-11-5-10-4-11-2-5-1-9 3-1h3v-13z" fill="#097EBF"/>
<path transform="translate(520,647)" d="m0 0 2 1 1 4 2 28 1 5 1 22 1 6 2 45-18 2h-19l-2-2v-6l-5 5-12 6h-17l-6-2v-2l-4-1-5-9-2-6-1-7-1-4-1-23-1-5-1-29-1-17 3-6 6-1h29l2 24 3 41 2 14v9l8 1 1-2-1-29-1-27-2-11-1-15v-5l4-2 7-1z" fill="#7FC528"/>
<path transform="translate(471,145)" d="m0 0 2 3-11 12-6-1-23 5-14 3-17 6-11 4-13 6-16 8-11 9-3 7-4 11-1 8-2 8v7l-1 1-1 8-1 4-2 10 1 2-14-1-7 5h-2v2h-3v2h-3v2l-11 7-11 8-9 6v6l14 32 7 18 6 13 8 20 4 9-1 2-24-5-15-4-10-2-1-3-2 3-2-2v-36l1-2 2-27 2-13h2v-9l2-7 2-10 7-22 8-20 6-11 4-6 2-1 3-6 3-2h3v-2h3l1-4 10-7 9-6 15-9 19-10 5-1 1-3 12-4 6-3 22-7 14-4 10-2 26-4h9z" fill="#7FA0D1"/>
<path transform="translate(267,390)" d="m0 0 10 1 37 9 7 14 11 24 7 14 7 16 8 16 8 19-2 2-4 2v18l-1 1-23 3-7 1-5-2-15-20-42-57-12-16-8-11 2-4 13-18 8-11z" fill="#097DBE"/>
<path transform="translate(324,268)" d="m0 0 8 1 18 6 17 5 16 5 3 1 4 14 5 21 1 8-1 3-18 4-7 1-2 6-1 1-1 9 2 12 4 18 1 9-2 3-3-11v-3l-6 1h-9l-5-1-4 1-2-2-2 2-3-12v-5l-15 1 1 6v10l-4-2-2 4-1 3-15-35-4-9-5-12-12-30 2-4 22-15z" fill="#0B62A5"/>
<path transform="translate(502,164)" d="m0 0 5 5 12 13 8 10 5 4v2h2l7 8 13 12 12 10 11 8 12 7 3 1-2 14-8 49-1 7-1-3-5-2-3-3-6-2v-2l-12 3-16 3-30 5h-6z" fill="#25367E"/>
<path transform="translate(701,508)" d="m0 0h23l10 3 9 5 4 5 4 9 3 27 4 47 1 13-1 1-25 2h-11l-1-5-11 7-6 2h-17l-8-4-4-5-3-7-2-21v-11l5-6 16-8 19-9 3-4-1-19-3-4-7 1v27l-22 2h-13l-1-9v-15l4-10 7-7 9-4z" fill="#0E2373"/>
<path transform="translate(500,521)" d="m0 0h20l12 3 9 6 6 8 3 13 3 36 3 31v13l-27 2h-10v-5h-2v2l-8 5-12 3h-8l-10-3-7-8-3-9-1-10v-19l6-7 34-16 3-5-1-17-2-4-6-1-3 2v9l1 17-20 2h-15l-1-5v-19l3-8 7-8 10-5z" fill="#0D2273"/>
<path transform="translate(582,642)" d="m0 0 12 1v2l6 1 14 7 3 5 3 2 1 7h2l2 11 1 22-1 1-17 1h-33l1 5 2 26 1 4 9 1 2-4v-21l6-3 29-1 1 1 1 17-1 9-1 2h-2l-2 5-4 5-13 8-7 2h-29l-8-3-7-4-6-4-4-6v-2h-2l-2-5-1-12-2-33v-20l2-7 5-8 5-4h3v-2l10-4 4-1z" fill="#7FC528"/>
<path transform="translate(558,313)" d="m0 0h7l4 2 3 11 8 40 7 37 5 26 3 3 3 1-1 4-50 9-36 6-27 5-36 6-40 7-8-1-3-4-9-47-5-25-8-41 2-5 3-3 26-5 19-3 52-9 42-7zm-6 12-34 6-30 5-16 3-41 7-33 6-7 1 1 10 8 42 6 31 4 19 4 1 24-4 25-5 27-4 33-6 24-4 28-5 1-4-8-42-6-31-5-25z" fill="#8DC550"/>
<path transform="translate(672,639)" d="m0 0 16 1 10 3 10 6 3 5 2 5 1 7v8l-1 1-32 1-2-4-2-9-1-2h-8l-1 3v9l2 3 6 2v2l11 3 7 3 3 2 6 2 10 7 3 5v2h2l2 5v24l-7 10-10 6-10 3-5 2h-30l-9-3v-2l-5-1-6-8-3-11v-13l2-3 24-1 7-1 1 2 1 13 2 5 2 1h6l2-3-1-14-8-4-9-4-11-4v-2l-6-2-9-6-4-9-2-16-1-5 4-10 5-5 4-2 2-3 6-2z" fill="#7FC528"/>
<path transform="translate(306,534)" d="m0 0h17l15 4 8 5 7 10 2 5 2 17-1 1-24 2h-12l-2-18-2-4-6-1-3 2v14l5 53 1 4h8l3-2v-13l-1-12 1-1 35-2 2 4v12l-2 12-5 10-7 6-7 4-14 3h-23l-12-4-10-7-5-8-2-5-2-13-2-28-1-4v-20l4-9 6-7 8-5 13-4z" fill="#0E2273"/>
<path transform="translate(494,194)" d="m0 0h1v120l7-1 2-1 16-2 29-5 10-2 1-1h6l1 2 6 2 7 5 2 13 7 36 2 12 1 2 1 9 1 2 2 12 5 24 1 4v12l2 2v5l-2 2-7 1-1 1-21 3-20 4-10 1-1 1-21 3-9 2-4 6-4 2v-2l4-4h-8l-11 2 1 3 11 2-3 2 1 13 4-1h27l19 7 1 3-10-4-9 1 2-4-10-1h-13l-16 3-10 3-11 6-7 6h-2v-2h2v-2l14-9 14-5h4l-2-9v-6l-7-1-3-3v-2l-20 4-21 3-13 3-17 2-1 1h-16l-4-2v-2l-4-2-1-4h-2l-3-19-3-12-3-18-1-2-3-19-1-1-2-15-5-21-1-11 1-7 4-7 10-3 11-2h4l1-3v2l14-1v-10h1v8l10-1 1-1 19-3 10-1v-6h1v6l8-2 10-2 2-2h11l8-3h3zm64 119-27 5-36 6-52 9-28 5-19 3-16 3-5 6 5 27 7 38 5 24 5 26 3 4 8 1 57-10 41-7 33-6 30-5 28-5 1-4-5-2-2-6-8-43-13-65-3-3-2-1z" fill="#23377F"/>
<path transform="translate(719,393)" d="m0 0 4 1 6 9 12 20 2 3-1 4-13 15-9 11-26 30-9 11-9 10-9 11-5 6h-2l-1-11-1-4 1-3 9 2 5-1 8-11 6-8 1-2-9-3-5 1-14 18h-2l-1-12-3-4h-10l-5-2-5 1-2 2h-5l2-5 13-23 14-24 13-23 3-3 16-5 9-3 16-6z" fill="#097DBE"/>
<path transform="translate(499,153)" d="m0 0h1v5h14l17 3 23 5 10 4 14 4v2l9 2 3 3 8 3 10 5 9 7 5 8 3 14 2 7 2 10 1 9 3 22v5l8 2-20 6-11 5h-2l-3 12-12 39-3 7-2-4-4-22 11-66v-7l-10-6-8-5v-17l-2-23-3-5-7-3-18-8-9-3-13-2-9-2-5-1-7-8-5-1z" fill="#D9E0F0"/>
<path transform="translate(504,145)" d="m0 0 36 5 5 2 17 4 10 3 17 6 13 6h2v2l6 2 10 5 13 7 9 6h2v2l4 1v2h2l1 2 6 3 9 8v2l4 2 2 4h2l10 19 3 8 4 9 4 13 1 4 2 2 1 7-6-2-22-16-7 1-27 9-5-1-1-12-2-16 1-4-2-1-1-9-1-5 1-2-2-1-1-4-3-15-4-5v-2l-4-2-8-6-7-3-9-4-2-2-9-3v-2l-10-2-12-4-15-4-14-3-17-2-10-1-1-5v-7z" fill="#7FA0D1"/>
<path transform="translate(472,141)" d="m0 0 4 1-3 5h-3-9l-34 5-9 3-17 5-8 3h-4l-1 2-5 2-12 4-1 2-19 9-9 6-6 3-5 3-12 8-6 5-2 1v2h-3v2h-3l-1 2-2 2-2 1-1 4-3 3-6 10-8 18-5 16-5 15-2 12-1 2-1 9h-2l-1 13-2 27-1 6v32l1 1 3-3-1 5-10 14-1 2h-2l-2 5-6 9-1-2h-2v3h-2l-1 2-1-5-1-11-3-8v-43l1-5 1-16 6-28 6-17 2-5 2-7 5-8 3-7 4-8 3-7 13-15 18-18 11-9 13-10 15-10 18-10 21-10 25-9 21-6 29-5z" fill="#5E8CC5"/>
<path transform="translate(597,501)" d="m0 0 2 1 1 16h10l1 3v15h-9l5 55 1 17 10 1 1 7v11l-11 1h-24l-8-3-5-5-2-5-3-22-4-47v-7h-8l-1-7v-11h7l-1-17 21-2z" fill="#0E2373"/>
<path transform="translate(456,158)" d="m0 0 5 2-6 7-3 3h-5l-6 2-11 2-5 3-10 3-16 8-5 4-2 7v8l1 5-1 1-1 10-1 2-1 20-2 22v9l-1 5-9-1-27-8-8-3-9-2 3-2-1-2 2-11 1-6h2l-1-6 1-1 1-10 4-18 4-9 5-5 10-8 16-8 11-5 11-4 24-8 25-5z" fill="#D9E0F0"/>
<path transform="translate(404,268)" d="m0 0 3 3h16l9-1 4 1 6-2v2h11l1 1 33-1 6 1 1 1v40l-11 4h-11l-4 3-21 3-16 3-9 1-1 1h-10l-1 2-3-1h2l-5-43-1-12z" fill="#214488"/>
<path transform="translate(638,515)" d="m0 0h16l1 3 5 61 3 31 1 13-1 1-25 2h-12l-1-6-1-16-2-16-5-55-1-16z" fill="#0D2273"/>
<path transform="translate(739,298)" d="m0 0 3 4 9 24 5 18 4 21 3 19v35l-1 2-3 25-6 26-7 20-5 12-2 3-9-2-5-1h-27l-16 3 2-4 9-11 13-15 2-3h2l2-4 18-22h2l2-4 7-8 6-7 1-10 1-3 3-22h2l-2-10v-18l-2-16-3-11-1-7-1-13-4-10-2-3-1-7z" fill="#067EC0"/>
<path transform="translate(559,246)" d="m0 0h18v20l-1 1h-16v2h13l1 3 7-2 4 4 1 8-5 32-1-3-5-2-3-3-6-2v-2l-12 3-16 3-30 5h-6v-22h1l1-20h6l6 1 1-1 23-1v2l4-1 12 1 1-5h2z" fill="#224689"/>
<path transform="translate(324,268)" d="m0 0 8 1 18 6 17 5 16 5 3 1 4 14 1 9-5-2-1 3-1-7-15 1-1 8-2-4-36 1-5-1v2h-3l-2-3-6 2 3 7v2h-2v-5h-16l2 10v7h-2l-1 4-1 3h-2l-4-8-5-13-6-15 2-4 22-15z" fill="#204387"/>
<path transform="translate(667,266)" d="m0 0 4 1 14 10 3 2v2l5 2 13 10 2 1v2l4 2 6 4-2 5-6 12-3 3 1-4 2-6h-3l-1-4 1-2h-2v3l-4-1v-2h-2v5l-6-2v-3h-2v3h-11l-1 3-5-2v-2l-3 1h-32-3l-1-4-4 1-1 5h-2l1-8-14-1-4 10-1-2-3-1-2 5h-1l1-10 6-18 25-9 30-10z" fill="#204388"/>
<path transform="translate(555,323)" d="m0 0h3l5 24 6 31 2-15 2-10 1-11 2 4 5 27 5 25 6 31 3 3 3 1-1 4-50 9-36 6-27 5-16 1-1-4 4 1-1 1 7-1 1-2h9v-2l-2-1 6-2h1l-1-2-13 3h-8v4h-21v-2l-7 2-31 5h-2l-5-25-3-14-3-18-9-45 1-3 2 6 5 26 5 24 5 27 4 19 22-3 30-6 27-4 33-6 24-4 28-5-2-15-10-49-7-37-16 2-22 4-30 5-16 3-41 7-10 2h-4v-2l45-8 47-8 36-6z" fill="#B2D391"/>
<path transform="translate(238,429)" d="m0 0h2v2l4-1 8 11 12 16 11 15 14 19 16 22 9 12 1 3-20 3-13 5-2 2h-6l-3-5-2-2-2-6-5-10-5-15-3-8-7-21-4-14-2-13v-9h-2v-4l-2-1z" fill="#5F8DC6"/>
<path transform="translate(510,486)" d="m0 0h13l10 2v3l7-1 10 5 4 3 3 2h-2v16l-7 2-1 7-3 1-14-7-16-2h-8l-20 2-16 8-9 10-5-1-5-2-2-4h2l2-9 7-11 4-5 12-9 8-4 18-5z" fill="#AFD090"/>
<path transform="translate(506,152)" d="m0 0 18 2 21 4 25 7 9 4 7 3 6 2 13 6 6 3 14 8 11 7v2l4 2 7 9 5 11 2 8 6 19 2 14-1 2-24 8-5-1-1-12-2-16 1-4-2-1-1-9-1-5 1-2-2-1-1-4-3-15-4-5v-2l-4-2-8-6-7-3-9-4-2-2-9-3v-2l-10-2-12-4-15-4-14-3-17-2-10-1v-5z" fill="#A7BBDE"/>
<path transform="translate(720,306)" d="m0 0h3l-1 8 3 11 1 9v11l1 6 1 36-11 4-38 13-9 2 3-9 15-29 10-19 13-26z" fill="#5E8DC5"/>
<path transform="translate(454,153)" d="m0 0h11v4l-3 3-6-1-23 5-14 3-17 6-11 4-13 6-16 8-11 9-3 7-4 11-1 8-2 8v7l-1 1-1 8-1 4-2 10 1 2-14-1-7 5h-2v2h-3v2h-3l-1 2-2-4 6-30 6-17 7-16 5-5 10-8h2v-2l7-3 6-4 11-6 28-12 11-4 13-4 15-4z" fill="#A7BBDE"/>
<path transform="translate(615,301)" d="m0 0 14 2-1 8h2v-5l3-2 2 1 2 4 3-1h34v2l5 1 1-2 6-1 5 1v-3h2l2 3 3 1 1-4h2v2l4 1v-3h2v6l3-1 1 2-3 6-1 6-16 31-2 1 2-6 6-12v-7h-3l1-9 2-8h-8l-7-1-3 16 11 1 3 1 1 3-5-2v2l-6-3v2l2 1h-3v-3h-3l-1 2h-27-3l-1 1h-17v-2l3-2-5 2h-5l-1-3-3 1 2 4-2 7h-2l2-9-10-1-5-1-2 7-2 2 1-5-4 1 1-9 5-16h2l2-3 4 2 3-8z" fill="#1A5295"/>
<path transform="translate(499,153)" d="m0 0h1v5h14l17 3 23 5 10 4 14 4v2l9 2 3 3 8 3 10 5 9 7 5 8 3 14 2 7 2 10 1 9 3 22v5l8 2-20 6-7 3h-5v-3h2v-21l-1-6h-2l-1-8h1v-5l-2-1v-13h-2l-1-12-3-7-2-11-1-2-5-3-8-5-6-3v-2l-13-3-8-4-19-5-16-3-11-3-4 1-3-3-5-1z" fill="#CFD7DE"/>
<path transform="translate(369,303)" d="m0 0h15l1 5 5-2 2 2 4 19-1 5-18 4-7 1-2 6-1 1-1 7h-1l-2-11v-5h-16l-3-1-15-1-3-1v3h-3l-1-2-1 2h-2l-2-8-2-9h2l-4-10 8-2 1 4h3v-2h41l2-4z" fill="#1A5496"/>
<path transform="translate(456,158)" d="m0 0 5 2-3 4-11 1-12 3-9 2-14 4-5 3-12 3-10 7-5 2-3 3-4 1-3 4-2 11-2 6-3 16-2 4-3 27 1 5h-2v6h-7l-8-3-9-2 3-2-1-2 2-11 1-6h2l-1-6 1-1 1-10 4-18 4-9 5-5 10-8 16-8 11-5 11-4 24-8 25-5z" fill="#CFD7DE"/>
<path transform="translate(225,319)" d="m0 0h2l1 4-3 12-1 10-1 9-1 8-1 4-1 28 1 9 2 9 3 33 5 22 4 16 7 20 2 5 3 4 1 6h2l3 9 7 14 4 4v3h3l-1 5-2 4-3-5-9-13-11-18-3-6-1-3h-2l-3-10-5-12-7-21-4-16-2-10-2-14-1-20v-14l1-19 3-19 4-18z" fill="#067EC0"/>
<path transform="translate(742,435)" d="m0 0h3v2h2l1 5-3 9-1 12-5 17-3 12-2 7h-2l-1 4-33 1-16 3 2-4 9-11 13-15 2-3h2l2-4 18-22h2l2-4 7-8z" fill="#397CBD"/>
<path transform="translate(706,246)" d="m0 0 4 2 12 17 11 19 6 12 1 10 3 5 3 10 1 11 3 16 2 9 1 14v13l1 10h-2l-1 17-1 7-1 4-1 7-2-4-12-20 2-6 3-2-2-46v-10l-3-13-1-11-5-18-1-1v-6l-4-6-1-9-3-1v-8l-4-2-2-5 1-2h-2l-5-9z" fill="#387CBD"/>
<path transform="translate(278,231)" d="m0 0 2 3h-3l-1 6-3 6-4 9h-2l-1 5-5 9-2 8-3 9-4 15-3 11-3 32-2 18 1 14 1 8v10l1 7 1 5-1 6-4 5v-2h-2v3h-2l-1 2-1-5-1-11-3-8v-43l1-5 1-16 6-28 6-17 2-5 2-7 5-8 3-7 4-8 3-7z" fill="#4C84C1"/>
<path transform="translate(561,602)" d="m0 0h1l2 13 3 8 5 5 5 3 11 2h12l20-1 7-1h13v2l-16 9-9 4-5-1-12-5-11-2h-13l-16 3-9 4-9 6-7 10-2 5-2-2-2-17-2-3h-20l-25 2-3 2-4-2-28 1-14 1-2 2-1 16-2-2-3-6-4-5-11-6 4-2 5-3 3 2h11l29-2 5-1 1-9 4 1 7 6 9 3h15l15-5 6 1 28-2 10-1 1-1z" fill="#338FB1"/>
<path transform="translate(686,222)" d="m0 0 7 6 9 10 5 6v5l5 8v2h2l1 4 2 4 2 1 1 8 2 1 3 11 3 5v5l3 9 3 10 1 11 3 13v12l2 44-5 5 2 1-4 1-8-13-1-3 4-1-1-7-1-29-1-8v-9l-2-13-2-9 1-4-2-8-5-4v-2l2-1-4-16-6-13-4-10-8-16-4-5-3-6-2-2z" fill="#4D84C2"/>
<path transform="translate(460,149)" d="m0 0h8l2 2-3 3h-13l-27 5-17 5-24 9-21 9-11 6-7 5-6 1v2l-6 4-7 6h-2l-2 5-6 14-7 21-4 23-1 4v4l-16 11-3-3 1-3h2l-2-3 2-14 4-11 3-13 7-15 6-12 7-6 4-4 3-1 3-3 14-9 7-4 12-7 15-7 24-10 20-6 8-2 21-4z" fill="#93AAD6"/>
<path transform="translate(553,454)" d="m0 0h4l-2 15-4 23-2 1-19-7h-31l-2-13 1-1-9-3v-4l11-2h9l-3 5h-2v2l5-4 3-5 21-4 9-1 1-1z" fill="#0C7EBE"/>
<path transform="translate(558,313)" d="m0 0h7l4 2 3 11 2 10v17l-4 25-2 1-10-53v-3l-13 3-36 6-28 5h-11v-7l1-2 48-8z" fill="#92C659"/>
<path transform="translate(238,429)" d="m0 0h2v2l4-1 8 11 5 8v4 6l2 3 3 14 1 7h2l4 13 5 10 1 6h2l7 14 3 4-1 5-5 2-1 1h-6l-3-5-2-2-2-6-5-10-5-15-3-8-7-21-4-14-2-13v-9h-2v-4l-2-1z" fill="#4D84C1"/>
<path transform="translate(499,148)" d="m0 0 1 2 13-1 32 6 15 4 13 4 7 2v2h5l12 5 16 8 9 5 5 2 5 4 11 7 6 4 5 5 5 4 4 8 4 9 5 11 5 18 1 6-4 2-3-2-11 1 1-4-3-14-5-16-4-13-5-9-6-7-8-6-14-8-9-5-16-8-11-3-2-2-11-4-26-7-22-4-13-1h-7z" fill="#93AAD6"/>
<path transform="translate(706,339)" d="m0 0h3v2h-2l1 9 1 2v13l-1 22-1 4 4 2-36 12-5 1 3-9 15-29 10-19 4-8z" fill="#7FA0D0"/>
<path transform="translate(516,168)" d="m0 0 13 3 14 2 11 5 9 4 5 3 5 2 3 5 2 24v14h-3l-13-10-10-10 1-4-2-9v-11l-10-5-11-4h-7l-3-3h-3l-4-5z" fill="#E6ECF1"/>
<path transform="translate(284,326)" d="m0 0 4 2 6 14 4 11 6 13 8 20 4 9-1 2-24-5-8-2 2-1-2-42v-14l1-3h-2z" fill="#94ABD6"/>
<path transform="translate(493,306)" d="m0 0h1v7l-11 4h-11l-4 3-21 3-16 3-9 1-1 1h-10l-1 2-3-1h2l-1-15 1-6h5l2 1 13-1h38l6 2 5-2h10 3z" fill="#195396"/>
<path transform="translate(472,125)" d="m0 0h33l15 1 26 4v1h-8l-23-3-12-1h-30l-6 2-21 2 9 1v1l-17 2-18 4-12 3-7 1-8 3-6 1v2h-5v2l-13 4h-3v2l-6 3-10 4-4 1v2l-9 3v2l-7 3-3 3-6 3h-2l-1-2-17 12-11 9-8 8-8 7-3 4-2-1 9-10 10-9 8-7 19-14 22-14 16-8 18-8 21-8 20-6 22-5 17-2 3-1z" fill="#C7D3E6"/>
<path transform="translate(479,496)" d="m0 0h2l1 2h4l2-2h3l1 6 1 2 4 1v11l-3-1v-2l-2-1 1-5h-3l1 3h-4v2l6 2v2l-7 3-16 8-9 10-5-1-5-2-2-4h2l2-9 7-11 4-5 9-7z" fill="#B6D498"/>
<path transform="translate(375,674)" d="m0 0h8l4 10 1 27 1 8v26l-2 1h-6l-5-5-1-6-2-44-1-12z" fill="#F2F5F2"/>
<path transform="translate(499,489)" d="m0 0h8l4 4-5 1v4h5l1 5 4-1v2l2 1 1-3 5-4-9-2v-2h2v-3l5-1 1-1h5v4l3 3h3l2-5h3v3h-2v5h4v-3h2v2l3 1v2l2 2h-2v2l4 1-2 4 1 1-1 11-1 3-3 1-13-7v-2l-13-1v-2l-2-1-3 2-5-3v-2l-4-1v-7l4-1-4-3v-7h-5z" fill="#8EC454"/>
<path transform="translate(555,323)" d="m0 0h3l5 24 8 44 5 23 2 10v5l-20 4-30 5-31 5-14 3-72 12h-2l-5-25-3-14-3-18-9-45 1-3 2 6 5 26 5 24 5 27 4 19 22-3 30-6 27-4 33-6 24-4 28-5-2-15-10-49-7-37-16 2-22 4-30 5-16 3-41 7-10 2h-4v-2l45-8 47-8 36-6z" fill="#20448A"/>
<path transform="translate(466,329)" d="m0 0h7l-3 1v7l4 1-52 9h-5v2l-19 4-5-1v-1l6-1-2-6h-3v6l-9 1-7 1-1-5 3-3 26-5 19-3z" fill="#92C65A"/>
<path transform="translate(391,221)" d="m0 0h1l7 53 3 27 2 13v12l-4 1-3-9-7-32-3-3-4-2 1-2h2v-12l2-22 1-20z" fill="#E6ECF1"/>
<path transform="translate(724,459)" d="m0 0 1 4 1 5-5 14-3 11-2 8-13 1 2-1-1-10-1 3h-2l-1 7-6 4-12 2 2-4 9-11 13-15 2-3h2l2-4 8-10h3z" fill="#4C85C1"/>
<path transform="translate(447,169)" d="m0 0 4 2-9 7-15 4-8 5-2 9-4 1 1 3-6 5-12 6h-3l-2-4v-8l3-8 5-4 16-8 12-4 7-3 12-2z" fill="#E6ECF1"/>
<path transform="translate(393,343)" d="m0 0 5 1 2 6-1 1h-6v2l-3 1 3 17 4 20v10h-11l-1 4-5-28-5-27 2-2 2 3 6-1h9z" fill="#92C65A"/>
<path transform="translate(311,560)" d="m0 0h2l1 5 1 15 1 2 8 1 37-2 1 12-41 3-2 2v10l1 15-3-1-2-16-1-14-1-5z" fill="#3A91B3"/>
<path transform="translate(278,483)" d="m0 0 4 1 5 4 7 10 10 14 10 13 1 3-21 3-5-13-6-14-2-4-2-9z" fill="#3A90B3"/>
<path transform="translate(636,491)" d="m0 0h16l1 4v12l-2 1-29 2h-7l-1-8v-9z" fill="#0F2575"/>
<path transform="translate(641,363)" d="m0 0 2 2-1 4h2l1 2 2-1v-3h2v2l3 1 1 5-3 7-2-1v-2l-3 1-2-2-1 2-3-1-1 2 3 1-1 3h-3v-3l-12-1-5-2h-9v4l-4-1v-3h-10l1 3-4-1-1 4-1-2-1-12 3-1 43-1 3-2z" fill="#1072B2"/>
<path transform="translate(332,689)" d="m0 0h2l2 6 3 48 2 27v12l9-1h29v1l-23 1-14 1-2-1-1-10v-12h-2v22l2 3h44l-3 3-37 1-6-3-3-6-2-51-1-16v-13z" fill="#D5E3CE"/>
<path transform="translate(574,342)" d="m0 0 2 4 5 27 4 21v6l-1-2h-2v2h-2v-4l-4 13h2v2h2l-1 3-2-1v5l-2-4-5-23-1-13 2-15 2-10z" fill="#B7D49A"/>
<path transform="translate(491,445)" d="m0 0h5l-4 1 1 4-4-1-3 1 2 4h-8l-2-1-1 3-8 1v-2l-2-1 1 4 4 1-30 5h-14l-1-1v-7l9 1v-2l8-2 3-2h2v2h21v-4l18-3z" fill="#8DC550"/>
<path transform="translate(516,439)" d="m0 0h6v2h-2v3l-4 2v-2l-5 1v-2h-3v3h-2l1 4h-3l1-7h-2v8l20-4h9l-4 2-44 8-16 1-1-4 4 1-1 1 7-1 1-2h9v-2l-2-1 6-2h1l-1-2-13 3h-8v4h-21v-2l14-3 20-3 14-3z" fill="#B4D394"/>
<path transform="translate(366,365)" d="m0 0h2l4 18 1 9-2 3-3-11v-3l-6 1h-9l-5-1-4 1-2-2-2 2-3-12 1-4 1 2h4 18l5 2z" fill="#1072B2"/>
<path transform="translate(479,496)" d="m0 0h2l1 2h4l2-2h3l1 6 1 2 4 1v11l-3-1v-2l-2-1 1-5h-3l1 3h-4v2l6 2v2l-10 3-9-1v-2l-7 1v-3l-2-1 4-2 1-2 1-1 4-2v-3l4 1v3l3-1-2-5h-2l-1 2-2-1v-4z" fill="#92C75A"/>
<path transform="translate(284,306)" d="m0 0 11 2 2-2v2l12-2 5 3 3 7v2h-2v-5h-16l2 10v7h-2l-1 4-1 3h-2l-4-8-5-13-2-5z" fill="#1C5295"/>
<path transform="translate(555,323)" d="m0 0h3l5 24 8 44 4 20v7h-1l-11-55-7-37-16 2-22 4-30 5-16 3-41 7-10 2h-4v-2l45-8 47-8 36-6z" fill="#1D4188"/>
<path transform="translate(405,220)" d="m0 0h18v21h-18z" fill="#EEF2F5"/>
<path transform="translate(559,281)" d="m0 0h17l1 1v20h-18z" fill="#EAEFF4"/>
<path transform="translate(714,569)" d="m0 0h2l2 7 1 13v11l-3 3h-6l-3-3-1-2-1-17 3-7z" fill="#EDF1F5"/>
<path transform="translate(559,246)" d="m0 0h18v20h-18z" fill="#F0F3F6"/>
<path transform="translate(472,242)" d="m0 0h16l1 21h-18v-20z" fill="#F1F3F6"/>
<path transform="translate(517,242)" d="m0 0h17v21h-17z" fill="#F4F6F6"/>
<path transform="translate(512,582)" d="m0 0h2l2 17v14l-3 3-7-1-2-3-1-7v-13l2-4z" fill="#EAEFF4"/>
<path transform="translate(760,374)" d="m0 0h1l2 10v35l-1 2-3 25-4 17-4-4 1-8 3-1-1-3 1-15 3-5-1-8v-10l2-4v-16l-1-9z" fill="#0D6FB1"/>
<path transform="translate(515,281)" d="m0 0h17v20h-17z" fill="#F5F7F8"/>
<path transform="translate(429,281)" d="m0 0h17v20h-17z" fill="#F7F8F9"/>
<path transform="translate(429,246)" d="m0 0h17v20h-17z" fill="#F7F8F9"/>
<path transform="translate(529,458)" d="m0 0h14v20h-17v-19z" fill="#F8F8F8"/>
<path transform="translate(473,126)" d="m0 0h30l28 3 24 3v1h-9l-17-1h-16l-17-1h-19l-18 1h-14l1-2 21-2z" fill="#EAEDF2"/>
<path transform="translate(580,394)" d="m0 0 1 3-1 3h2v-2h4l6 31v2l-4-1 1-4-2-7-1 5h-2v2h2v5h-2l-1-3-2-1v-2l-3 1-2-5 1-8h2l1-2h-2v-2h-2l2-10z" fill="#B1D290"/>
<path transform="translate(472,125)" d="m0 0h33l15 1 26 4v1h-8l-23-3-12-1h-30l-6 2-21 2 9 1v1l-17 2-18 4-2 1h-6v-1l13-3h2v-2l-8 1-10 1 3-2 22-5 17-2 3-1z" fill="#B7C7E1"/>
<path transform="translate(627,631)" d="m0 0h13v2l-16 9-9 4-5-1-10-5 4-3 9-4z" fill="#223B82"/>
<path transform="translate(379,680)" d="m0 0 3 1 1 3 1 16v20h2v20h-4l-1-2-2-28-1-18-1-10z" fill="#A2B7DC"/>
<path transform="translate(406,339)" d="m0 0h5l1 1v8h5l-3 2-16 3-5-1v-1l6-1-2-6h-3v6l-9 1-7 1-1-5 3-3z" fill="#B7D49B"/>
<path transform="translate(518,486)" d="m0 0 12 1 3 1v3l7-1 10 5 4 3 3 2h-2v16l-7 2v-7-3l1-2-3-1-1-6-2-1v-2h-2v3l-4 1-1-4 1-2h2v-3l-3 1-2 4h-3l-1 2v-4l-3-1 1-4-6 1v-2h-4z" fill="#ACD088"/>
<path transform="translate(442,452)" d="m0 0 3 1v1l-9 1v2l-4 1-5-2 1 7h7l1 2-28 5-8-1-2-2 1-4 1 3h12l-2-2-1-4-1-5 1 3 10-2z" fill="#B5D496"/>
<path transform="translate(394,442)" d="m0 0h1l1 3 2-1 2 3 4-3 1 2 2-1 2 14 2 2 1 4 1 2h-13l-3-2-3-16z" fill="#9FCB6F"/>
<path transform="translate(299,313)" d="m0 0h16l2 11v5l-6 1h-10l-2-12z" fill="#EDF1F5"/>
<path transform="translate(369,303)" d="m0 0h15l2 11v5l-6 1h-10l-2-16z" fill="#EFF2F6"/>
<path transform="translate(316,467)" d="m0 0 4 1 8 12-1 3-9 3h-4l-8-12-1-3z" fill="#F2F4F7"/>
<path transform="translate(682,314)" d="m0 0 15 1-1 8-3 9-14-1-1-3z" fill="#F0F3F6"/>
<path transform="translate(383,473)" d="m0 0h5l2 8 1 8-1 1-14 1-2-7-1-10z" fill="#F3F5F7"/>
<path transform="translate(317,491)" d="m0 0 3 1 7 11v4l-10 3-4-1-8-12v-2z" fill="#F4F6F8"/>
<path transform="translate(407,488)" d="m0 0h13l2 10v6l-5 1h-10l-3-16z" fill="#F2F5F7"/>
<path transform="translate(604,331)" d="m0 0 10 1 5 1-2 9-2 7h-8l-7-1 2-11z" fill="#F1F4F7"/>
<path transform="translate(615,301)" d="m0 0 14 2-1 6-2 8-1 2h-8l-7-1 2-12z" fill="#F1F3F6"/>
<path transform="translate(674,453)" d="m0 0 10 3 3 1-1 4-9 11-6-1-7-3 2-5z" fill="#F3F5F7"/>
<path transform="translate(307,420)" d="m0 0 5 1 8 12v2l-13 4-9-12-1-3z" fill="#F4F5F8"/>
<path transform="translate(275,419)" d="m0 0h3l9 13v2l-11 4h-4l-5-9-3-4 1-3z" fill="#F3F5F7"/>
<path transform="translate(632,334)" d="m0 0 15 1-2 9-2 8-13-1-2-1 2-11z" fill="#F2F4F7"/>
<path transform="translate(575,663)" d="m0 0h8l3 4v16l-1 1h-11l-1-6v-10z" fill="#F3F6EF"/>
<path transform="translate(342,405)" d="m0 0h12l2 9v7l-5 1h-10l-2-11v-5z" fill="#F3F5F7"/>
<path transform="translate(362,381)" d="m0 0h6l2 8v9l-14 1-2-7-1-10z" fill="#F3F5F7"/>
<path transform="translate(655,365)" d="m0 0 9 1 6 1-2 11-2 5-13-1-2-1z" fill="#F3F5F7"/>
<path transform="translate(348,335)" d="m0 0h15l2 10v6l-7 1h-8l-2-10z" fill="#F2F4F6"/>
<path transform="translate(595,471)" d="m0 0 11 1 3 1-1 8-3 8-14-1-1-2 4-14z" fill="#F4F5F7"/>
<path transform="translate(300,444)" d="m0 0 4 2 8 12-4 3-10 2-9-12v-3z" fill="#F3F5F7"/>
<path transform="translate(343,483)" d="m0 0 4 1 8 11v3l-11 4-4-2-7-11-1-2z" fill="#F4F6F8"/>
<path transform="translate(708,433)" d="m0 0 6 1 8 3-2 4-8 10-3 1-10-4v-3z" fill="#F4F6F7"/>
<path transform="translate(623,380)" d="m0 0 14 2-1 7-3 9-14-1-1-2 4-14z" fill="#F4F5F7"/>
<path transform="translate(676,421)" d="m0 0 10 3 3 2-2 4-8 10-9-2-4-2 2-5z" fill="#F4F6F8"/>
<path transform="translate(635,404)" d="m0 0 14 2-1 8-2 8h-8l-7-1 1-8z" fill="#F4F6F7"/>
<path transform="translate(396,397)" d="m0 0 2 1 3 13 1 13-3-3v-2l-2-1v2h-2v-2l-6 1-2-4-1-6v-8h11z" fill="#B7D49B"/>
<path transform="translate(524,354)" d="m0 0 2 2-9 8-11 9-13 11-14 11-14 12-14 11-7 6h-2l2-4 17-14 13-11 11-9 17-14 11-9z" fill="#21458B"/>
<path transform="translate(326,365)" d="m0 0h11l2 9v7l-15 1-2-10v-6z" fill="#F4F6F8"/>
<path transform="translate(416,642)" d="m0 0 4 2h40v1h-15v2l-14 1-2 2-1 16-2-2-3-6-4-5-11-6 4-2z" fill="#1782BA"/>
<path transform="translate(704,479)" d="m0 0 1 2h2l-2 9-2 4h-2l-1 7-6 4-12 2 2-4 9-11z" fill="#5F8FC5"/>
<path transform="translate(604,425)" d="m0 0 12 1 3 1-4 16-11-1-3-5 2-10z" fill="#F3F5F7"/>
<path transform="translate(495,324)" d="m0 0h1v8l-5 2v1l-10 2h-11v-7l1-2z" fill="#90C557"/>
<path transform="translate(466,632)" d="m0 0 4 1 7 6 9 3 6 1v2l-12 1-3 2-4-2h-28v-3l15-1 5-1z" fill="#328FB1"/>
<path transform="translate(423,133)" d="m0 0h5l-1 3-10 3h-5v2l-11 2-8 3-6 2h-6v2l-4-1 4-3h2v-3l22-7z" fill="#E7EBF1"/>
<path transform="translate(269,498)" d="m0 0 3 4 3 8v2h2l7 14 3 4-1 5-6 2h-3l-1-13-4-8-1-9v-3l-2-1-1-2z" fill="#368FB1"/>
<path transform="translate(500,463)" d="m0 0h9l-3 5h-2v17l-5 1-2-13 1-1-9-3v-4z" fill="#2E87B8"/>
<path transform="translate(371,427)" d="m0 0h9l2 11v5l-5 1h-7l-2-11v-5z" fill="#F4F6F8"/>
<path transform="translate(489,470)" d="m0 0 12 1-3 2 1 13 4-1h27l19 7 1 3-10-4-9 1 2-4-10-1h-13l-16 3-10 3-11 6-7 6h-2v-2h2v-2l14-9 14-5h4l-2-9v-6l-7-1z" fill="#1E4288"/>
<path transform="translate(609,547)" d="m0 0 4 4 5 53-5-1-4-51z" fill="#3790B1"/>
<path transform="translate(692,486)" d="m0 0v3l-10 11-9 11-8 9-3 4h-2l-1-11-1-4 1-3 9 2 5-1 5-7 6-5 7-8z" fill="#1278B6"/>
<path transform="translate(826,363)" d="m0 0 3 1 4 8v2h2l2 3 3 19-2 6-1-2h-2l-9-34z" fill="#067FC0"/>
<path transform="translate(483,466)" d="m0 0h3l6 6v7h-17v-12z" fill="#F4F6F7"/>
<path transform="translate(381,144)" d="m0 0h2v2l-5 3 3 1v-2h6v1h-5v2l-13 4h-3v2l-6 3-10 4h-3l1-4 5-4 18-8z" fill="#CBD6E8"/>
<path transform="translate(333,730)" d="m0 0h1v21h2l1 32 2 3h44l-3 3-37 1-6-3-3-6-1-29z" fill="#B4C4DD"/>
<path transform="translate(511,486)" d="m0 0h7v2h4v5l-1-2h-4v3h-2v2h7l4 2-4 1-1 3-3 3-6-2-1-5h-5v-4l4-2-1-3z" fill="#A7C890"/>
<path transform="translate(587,142)" d="m0 0 9 2 14 6 9 4 17 9 8 4 12 8 19 13 6 7-4-1-4-5-16-10-3-2v-2l-5-2-9-6-9-4-14-7-14-6-14-5z" fill="#B5C5DF"/>
<path transform="translate(304,369)" d="m0 0 2 2 7 17 3 9-15-3 4-1v-2l-2-1-1-7-1-3h2l-1-9z" fill="#A6BADD"/>
<path transform="translate(354,529)" d="m0 0h3l1 11v10l-3-3-7-8-9-6v-2z" fill="#90ABD4"/>
<path transform="translate(682,380)" d="m0 0h3v5h-2l1 7-1 5v3l2 2-13 4h-2l3-9z" fill="#95ACD6"/>
<path transform="translate(364,629)" d="m0 0 2 3 1 11 2 4 14 1-5 4h-4l-14-5-4-3 1-4 5-8z" fill="#24488C"/>
<path transform="translate(216,445)" d="m0 0 3 3 3 11 1 3v10h2l5 14 1 6 2 3-1 5-3-4-9-27-4-16z" fill="#0E72B3"/>
<path transform="translate(470,500)" d="m0 0 2 1v4h-2l-1 2-4 5h-2v2h-2v2h2l2 3v4h-2l2 7-1 1h-7v-2l2-1-2-2 1-5v-3l-2 2 1-6 7-9z" fill="#91C657"/>
<path transform="translate(473,498)" d="m0 0 5 1-3 1v2l5-1 3 6h-4v-3l-4 1 1 2-4 1 1 2-3 1-4 2 1 4 7-1v2l4 1-10 4h-3l-2-7h-2v-2h2v-2h2l1-3 4-4h2v-2l-2-1z" fill="#BAD69E"/>
<path transform="translate(760,424)" d="m0 0h1v8l-4 24-2 7-4-4 1-8 3-1-1-3 1-15 4-5z" fill="#0E72B3"/>
<path transform="translate(578,633)" d="m0 0h35l-4 3-9 4-13-2-19-1v-1l10-1z" fill="#107FBC"/>
<path transform="translate(558,453)" d="m0 0h5l-4 17-7 24h-2l6-37z" fill="#E8ECF3"/>
<path transform="translate(212,393)" d="m0 0h1l2 16 1 5v22h2l-1 8-3-1-2-14-1-20v-14z" fill="#0D72B4"/>
<path transform="translate(397,433)" d="m0 0h8l2 12-2 2-2-2-4 3-2-3-1 4-3-4v-9l3-1z" fill="#94C75C"/>
<path transform="translate(484,357)" d="m0 0h2l-2 4-14 11-8 7-11 9-12 10h-2v-3l10-8 17-14 13-11z" fill="#23458B"/>
<path transform="translate(522,439)" d="m0 0 3 2 2 3h1 4l3 4h-12l-13 3h-7v-8h2l-1 7h3l-1-4h2v-3l8 1h4v-3h2z" fill="#8EC552"/>
<path transform="translate(580,394)" d="m0 0 1 3-1 3h2v-2h4v8l-2 3 3 7-3 1-3-1-1 2h-3v-5h2l1-2h-2v-2h-2l2-10z" fill="#8EC552"/>
<path transform="translate(228,274)" d="m0 0h3l1 4-6 12-3 9-3 2-1-2-4 7-1-2 7-16z" fill="#D8E0EC"/>
<path transform="translate(526,389)" d="m0 0h2l-2 4-10 8-13 11-10 8-12 10h-2l2-4 14-12 10-8 13-11z" fill="#1C3984"/>
<path transform="translate(379,680)" d="m0 0 3 1 1 3 1 26h-5l-1-18-1-10z" fill="#97B5D6"/>
<path transform="translate(434,740)" d="m0 0 3 1 2 6v6l-2-3-2-2-4 12-9 9-5 3-9 2h-11l-3-2 16-1 1-1 7-1 10-9 3-10 2-7z" fill="#B6C6DF"/>
<path transform="translate(533,759)" d="m0 0v3l-3 2-13 1-4 1h-27l-14 4h-12l-4-2h15l10-3 4-2h28l3-1 15-1z" fill="#A9BCDC"/>
<path transform="translate(267,390)" d="m0 0 10 1 37 9 7 14 9 19-1 3-17-34-30-7-12-3z" fill="#1C5396"/>
<path transform="translate(466,329)" d="m0 0h7l-3 1v7l4 1-22-1v-5l7-2z" fill="#B8D59C"/>
<path transform="translate(674,366)" d="m0 0h2v5h4l1-2-1 5-4 8h-6l-3 1 1-9 2-4z" fill="#1172B2"/>
<path transform="translate(310,366)" d="m0 0 5 1v5l5-1 1-5h1l1 6v10l-4-2-2 4-1 3-4-10-1-5z" fill="#156DAC"/>
<path transform="translate(482,389)" d="m0 0h2l-2 4-14 11-14 12-10 8h-2l2-4 17-14 13-11z" fill="#1F4289"/>
<path transform="translate(456,455)" d="m0 0 3 2 8 1-2 2-17 3h-11l-4-2v-2l7 1 2 1 4-4z" fill="#B2D390"/>
<path transform="translate(391,342)" d="m0 0h6l-3 2v6l-9 1-7 1-1-5 3-3z" fill="#B8D59C"/>
<path transform="translate(549,642)" d="m0 0 2 1-12 9-7 11-2 3-1-2v-16l2 3 7-2 1-2h2v-2z" fill="#1376B4"/>
<path transform="translate(555,544)" d="m0 0h2l4 43 1 2v13h-2l-3-27-2-23z" fill="#A6BADD"/>
<path transform="translate(404,452)" d="m0 0 4 3 1 4 2 2 1 4 1 2h-13l-3-2 1-7h3v4h2v-3l2-1z" fill="#8DC550"/>
<path transform="translate(298,197)" d="m0 0 2 1-12 11-7 8-17 17-2-1 3-4h2l3-6h2l2-4 10-10 8-7z" fill="#416DA8"/>
<path transform="translate(335,429)" d="m0 0 3 4 12 28 4 10 6 14-1 2-3-5-10-23-6-15-5-11z" fill="#235E9F"/>
<path transform="translate(523,438)" d="m0 0h9l-2 2 9 2v-2h6l-3 3 3 2-6 2h-6l-1-3-7 2-1-2 2-1-3-3z" fill="#B6D497"/>
<path transform="translate(408,455)" d="m0 0 1 3 2-1h8l-3 1v5l-1 1 3 3-10 3-8-1-2-2 1-4 1 3h12l-2-2-1-4z" fill="#B5D496"/>
<path transform="translate(719,393)" d="m0 0 4 1 6 9 12 20 2 3-1 4-2 1-1-7-7-11-8-13-2-4-10 2-6 1 2-2z" fill="#1E5699"/>
<path transform="translate(624,176)" d="m0 0 12 6 21 14-2 2-9-5v-2l-6-2-9-6-9-5z" fill="#4C83C1"/>
<path transform="translate(472,447)" d="m0 0h6v2h-8v4h-21v-2l14-3z" fill="#B6D498"/>
<path transform="translate(461,574)" d="m0 0h15l-3 3-7 6-3 6-2-3z" fill="#A7BBDE"/>
<path transform="translate(633,699)" d="m0 0 4 1 7 5v2l-7 2h-5l-1-1v-6z" fill="#3590B1"/>
<path transform="translate(596,399)" d="m0 0 9 1-4 16h-2z" fill="#EBEFF4"/>
<path transform="translate(629,646)" d="m0 0h4l-1 4-5 8-4-1-2-3v-4z" fill="#3590B1"/>
<path transform="translate(575,414)" d="m0 0h1l2 10v5l-20 4-15 2-4-2 25-4 11-2-1-9z" fill="#2A4F93"/>
<path transform="translate(520,647)" d="m0 0 2 2-21 1-6 1h-10v20h-1l-1-15v-5l4-2 7-1z" fill="#B0D28C"/>
<path transform="translate(579,425)" d="m0 0h2v2l3 1v3h2v6l-1 1h-7l1-3h3v-2h-2v-2h-3l-1 2v-2l-4-1 1-1h5z" fill="#8EC552"/>
<path transform="translate(491,445)" d="m0 0h5l-4 1 1 4-4-1-3 1 2 4h-8l-5-3 3-1v-2z" fill="#93C75A"/>
<path transform="translate(500,323)" d="m0 0h3v7l4 2-9 2h-9v-1l6-1 1-8z" fill="#B8D59C"/>
<path transform="translate(675,561)" d="m0 0 4 1-8 5-5 6-2-2v-9z" fill="#4191B7"/>
<path transform="translate(518,486)" d="m0 0 12 1 3 1v3l7-1-4 2-2 4h-3l-1 2v-4l-3-1 1-4-6 1v-2h-4z" fill="#AFD191"/>
<path transform="translate(453,316)" d="m0 0h17v3l-10 2-7 1z" fill="#E9EEF3"/>
<path transform="translate(479,496)" d="m0 0h2l1 2h4l2-2h3l-1 3h-2v5h-5l-2 1-1-4h-2l-1 2-2-1v-4z" fill="#7EAE6A"/>
<path transform="translate(505,509)" d="m0 0h6l-3 1v2l4 1 2 1 3-3 1 5h9l4 2-2 1-23-3 1-4h-2z" fill="#B7D59A"/>
<path transform="translate(423,133)" d="m0 0h5l-1 3-15 4-6 1 1-3h2v-2z" fill="#F0F3F5"/>
<path transform="translate(526,389)" d="m0 0h2l-2 4-20 16-2-2 14-12z" fill="#1C3F87"/>
<path transform="translate(434,740)" d="m0 0 3 1 2 6v6l-2-3-2-2-3 10-3 1 3-15z" fill="#C2CEE3"/>
<path transform="translate(552,498)" d="m0 0 5 1-2 1v16l-7 2v-7-3l3-2 1 6-1 3h2l-1-12v-3z" fill="#B7D49E"/>
<path transform="translate(426,476)" d="m0 0h3l3 21v9l-2-4-4-20z" fill="#C7D3E6"/>
<path transform="translate(498,472)" d="m0 0h5v14h-4l-2-13z" fill="#E6EBF2"/>
<path transform="translate(665,636)" d="m0 0h18l6 2v1h-30l2-2z" fill="#FCFCFB"/>
<path transform="translate(470,500)" d="m0 0 2 1v4h-2l-1 2-4 5h-5v4h-3l2-5 5-6z" fill="#9ECB72"/>
<path transform="translate(346,473)" d="m0 0 3 1 12 26 1 4h-2l-5-10-3-7z" fill="#2664A3"/>
<path transform="translate(704,490)" d="m0 0 1 2v9l12 1v1l-21 1 3-3 2-7h2z" fill="#3590B1"/>
<path transform="translate(630,741)" d="m0 0 4 2 7 8 8 4-3 1-8-5-6-6h-3l-6 7-3 1 1-3 5-5z" fill="#B6C5DF"/>
<path transform="translate(533,759)" d="m0 0v3l-3 2-13 1h-21v-1l17-1 3-1 15-1z" fill="#C5D1E3"/>
<path transform="translate(385,720)" d="m0 0h1v20h-4l-1-2v-9l2 3z" fill="#D4DBE4"/>
<path transform="translate(526,485)" d="m0 0 7 1 16 6 1 3-10-4-9 1 2-4-10-1z" fill="#325C81"/>
<path transform="translate(535,734)" d="m0 0 3 4 3 5v5l-3-4v-2h-2l-1 17h-1v-23z" fill="#C9D3DE"/>
<path transform="translate(692,486)" d="m0 0v3l-10 11-9 11-2 1 2-5 5-7 6-5 7-8z" fill="#225394"/>
<path transform="translate(402,426)" d="m0 0 2 3v4h-3l-1 2-7 1-1 3v-7l6-1 2-3h2z" fill="#BAD69E"/>
<path transform="translate(583,709)" d="m0 0 3 1v17l-2 2-1-3z" fill="#CDD6DE"/>
<path transform="translate(752,464)" d="m0 0 2 4-5 15h-3l1-6z" fill="#0E71B2"/>
<path transform="translate(405,136)" d="m0 0h4v2l-2 2h5l-4 2-8 1v-2h-8l3-2z" fill="#C1CFE5"/>
<path transform="translate(533,726)" d="m0 0h2l2 6-1 4h-1l-1 23h-1z" fill="#E2E8F0"/>
<path transform="translate(544,436)" d="m0 0h6v2l4 1-1 3-6 2h-5l-1-2 6-3 1-2z" fill="#8DC550"/>
<path transform="translate(370,332)" d="m0 0 4 2-1 3h-3l-2 6-2 1-1-9h3v-2z" fill="#0962A5"/>
<path transform="translate(367,645)" d="m0 0 2 2 14 1-5 4h-4l-8-3z" fill="#254188"/>
<path transform="translate(483,493)" d="m0 0h7v3l-1 2-4 1v-2l-4 2v-3l-3 2-3-1z" fill="#A4CD7D"/>
<path transform="translate(642,703)" d="m0 0 9 3 2 3-1 1-15-1 3-2h4z" fill="#C0CDE3"/>
<path transform="translate(552,322)" d="m0 0h7l1 2-2 2v-3l-13 3h-8v-3z" fill="#B7D49A"/>
<path transform="translate(607,302)" d="m0 0 3 1 2-1 1 4-2 6-1-2-3-1-2 5h-1l1-8z" fill="#1B3E85"/>
<path transform="translate(349,647)" d="m0 0h5l1 5-1 1h-8v-4z" fill="#79AACA"/>
<path transform="translate(310,366)" d="m0 0 5 1v5l4 1-1 5-3-3-3-1-2-5z" fill="#0D72B3"/>
<path transform="translate(555,133)" d="m0 0 8 1 18 5v1h-9l-14-4v-2z" fill="#B9C8E1"/>
<path transform="translate(717,676)" d="m0 0 2 1-3 3-2 1-14 1-1 2 4 2-5-1-4-2 1-3 18-1 4-1z" fill="#B3C3DE"/>
<path transform="translate(600,633)" d="m0 0h13l-4 3-5 2h-6l-1-2h3z" fill="#1480B9"/>
<path transform="translate(523,489)" d="m0 0h5v3l-5 2-1 2-4 1-3-1v-2h2v-3l5-1z" fill="#86BB5A"/>
<path transform="translate(462,505)" d="m0 0h2l-2 4-7 10-4 11h-2l3-10 5-9z" fill="#16357F"/>
<path transform="translate(403,444)" d="m0 0 2 2 2-1 1 10-7-4-1-4z" fill="#B9D59C"/>
<path transform="translate(528,437)" d="m0 0 12 1 5 1-4 2-2-1v2h-7l-4-4z" fill="#8DC550"/>
<path transform="translate(817,332)" d="m0 0h2l4 7v6l-2 1v-2h-2l-1-8h-2z" fill="#067FC1"/>
<path transform="translate(456,410)" d="m0 0h2l-2 4-12 10h-2l2-4z" fill="#203C86"/>
<path transform="translate(760,374)" d="m0 0h1v31h-1l-1-16-1-9z" fill="#0F72B3"/>
<path transform="translate(316,607)" d="m0 0 3 1 1 15-3-1-1-4z" fill="#305393"/>
<path transform="translate(555,474)" d="m0 0h1l-1 10-3 10h-2l3-16z" fill="#DDE4EF"/>
<path transform="translate(416,458)" d="m0 0h6l-2 1v2h2l1 4-6 1-4-3h3z" fill="#8DC550"/>
<path transform="translate(393,343)" d="m0 0 5 1 2 6-7 2h-2v-2h3z" fill="#8DC550"/>
<path transform="translate(664,711)" d="m0 0h3l1 4-32-1v-1l24-1z" fill="#9BCA69"/>
<path transform="translate(473,498)" d="m0 0 5 1-3 1v2l5-1 3 6h-4v-3h-7l-2-2z" fill="#B6D498"/>
<path transform="translate(394,442)" d="m0 0h1l1 3 2-1 1 8-1 1v7h-2l-2-11z" fill="#B6D498"/>
<path transform="translate(524,354)" d="m0 0 2 2-9 8-5 4h-2l2-4z" fill="#1F3E86"/>
<path transform="translate(608,541)" d="m0 0h4l1 2v8l-3-2-2 3z" fill="#9CB1D9"/>
<path transform="translate(511,486)" d="m0 0h7v2h4v2l-10 1h-3z" fill="#A1CC73"/>
<path transform="translate(588,431)" d="m0 0 7 1 3 1-1 4-9-1z" fill="#97C962"/>
<path transform="translate(560,267)" d="m0 0h17v5h-3l-1-2-13-1z" fill="#1E2F7A"/>
<path transform="translate(442,452)" d="m0 0 3 1v1l-9 1v2l-4 1-1-1-8-1v-1z" fill="#B0D28C"/>
<path transform="translate(711,584)" d="m0 0 4 1v10h-3l-1-4z" fill="#C5D0DF"/>
<path transform="translate(531,518)" d="m0 0 7 2 5 2 5-4-1 7-3 1-13-7z" fill="#B7D59A"/>
<path transform="translate(448,386)" d="m0 0 3 1-5 5-7 6h-2v-3l10-8z" fill="#24478E"/>
<path transform="translate(581,388)" d="m0 0h3l1 12-1-2h-2v2h-2z" fill="#A3CD77"/>
<path transform="translate(462,375)" d="m0 0 3 1-13 11h-2l2-4z" fill="#1D3E86"/>
<path transform="translate(311,329)" d="m0 0h6v3h-10l-1 3-5-2v-3z" fill="#185194"/>
<path transform="translate(358,156)" d="m0 0m-3 1h3v3l-9 5-2-1 1-4z" fill="#ECEFF2"/>
<path transform="translate(385,768)" d="m0 0h4v2l-2 1-1 11-2 4-1-2 1-15z" fill="#B1C1DB"/>
<path transform="translate(559,583)" d="m0 0 3 6v13h-2l-1-8z" fill="#7BAFCB"/>
<path transform="translate(540,510)" d="m0 0 6 1-2 2 1 2-5 1v2h-3l2-7z" fill="#BAD69E"/>
<path transform="translate(489,465)" d="m0 0h7v6l-7-2z" fill="#6CADD3"/>
<path transform="translate(500,463)" d="m0 0h3v6l-1 1h-5v-6z" fill="#EFF2F3"/>
<path transform="translate(257,404)" d="m0 0v3l-7 10-5 8-2-1 2-4 11-15z" fill="#27589A"/>
<path transform="translate(607,168)" d="m0 0 5 1 10 5-4 2-11-6z" fill="#4A82C1"/>
<path transform="translate(489,419)" d="m0 0 3 1-5 5-6 5h-2l2-4z" fill="#1F4289"/>
<path transform="translate(534,436)" d="m0 0h10l4 1-1 3-14-2z" fill="#BAD69E"/>
<path transform="translate(518,486)" d="m0 0 12 1 3 1-1 3-4-1h-6v-2h-4z" fill="#B6D497"/>
<path transform="translate(586,418)" d="m0 0 2 1 2 8h-2l1 3-3 1v-5h-2v-2h2z" fill="#8DC550"/>
<path transform="translate(492,380)" d="m0 0 3 1-5 5-5 4-2-2z" fill="#264A90"/>
<path transform="translate(600,328)" d="m0 0h2l1 2v7l-3 3 1-5h-3z" fill="#175B9D"/>
<path transform="translate(377,147)" d="m0 0 2 1-1 1 3 1v-2h6v1h-5v2l-10 2v-4z" fill="#D0DAE9"/>
<path transform="translate(484,357)" d="m0 0h2l-2 4-6 5-4-1z" fill="#22478D"/>
<path transform="translate(382,720)" d="m0 0 2 1 1 5-1 7-2-1-1-9z" fill="#3590B1"/>
<path transform="translate(633,697)" d="m0 0 3 2-3 1-1 2v6l4 2h-5l-2-2 1-9z" fill="#B4C4DE"/>
<path transform="translate(455,539)" d="m0 0h5l-1 10h-2z" fill="#D7DFEA"/>
<path transform="translate(490,507)" d="m0 0h3l-1 5 3 1v2l-7-1-1-4 3-1z" fill="#BAD69E"/>
<path transform="translate(404,452)" d="m0 0 4 3 1 4 2 2-4 3z" fill="#95C85F"/>
<path transform="translate(586,431)" d="m0 0h2l1 4 7 1-4 2-9 1 2-2z" fill="#B4D393"/>
<path transform="translate(436,342)" d="m0 0h7l-4 2-10 2h-6l1-3h9z" fill="#B4D393"/>
<path transform="translate(477,519)" d="m0 0 1 2-8 4-3 2v-2h-2l1-2z" fill="#8EC552"/>
<path transform="translate(516,514)" d="m0 0h2v2h9l4 2-2 1-15-2v-2z" fill="#BAD69E"/>
<path transform="translate(313,309)" d="m0 0 3 3 1 6h-2l-1-5-14-1v-1z" fill="#204085"/>
<path transform="translate(637,642)" d="m0 0h2l-2 5-4 2v-3l-3-1z" fill="#BECBE0"/>
<path transform="translate(572,435)" d="m0 0h4l-1 4-8 1 1-3z" fill="#8DC550"/>
<path transform="translate(512,400)" d="m0 0 3 1-5 5-5 3v-3z" fill="#20448A"/>
<path transform="translate(535,738)" d="m0 0h3l3 5v5l-3-4v-2h-2l-1 2z" fill="#B3C3DF"/>
<path transform="translate(426,476)" d="m0 0h3v12l-2-2z" fill="#E0E6EF"/>
<path transform="translate(402,426)" d="m0 0 2 3v4h-3l-1 2h-2l1-4 1-3h2z" fill="#B6D498"/>
<path transform="translate(389,420)" d="m0 0h2v3l5 1-1 3h-3l-2 2z" fill="#B5D495"/>
<path transform="translate(621,157)" d="m0 0 6 1 9 5v2l-5-2-10-5z" fill="#BCCAE1"/>
<path transform="translate(384,726)" d="m0 0h1v12l-3-1-1-8 2 3z" fill="#9EB3DA"/>
<path transform="translate(381,698)" d="m0 0 2 3v7l-2 2-1-2v-8z" fill="#3590B1"/>
<path transform="translate(423,656)" d="m0 0 5 1v9l-2-2-3-6z" fill="#173680"/>
<path transform="translate(678,500)" d="m0 0 2 3-8 9-1-2z" fill="#255C9D"/>
<path transform="translate(432,501)" d="m0 0h1l1 6v9l-3-4z" fill="#3590B1"/>
<path transform="translate(355,490)" d="m0 0 3 3 4 11h-2l-5-10z" fill="#1C5798"/>
<path transform="translate(508,461)" d="m0 0 4 1-4 6-4 2v-2l4-4-6-1v-1z" fill="#1B4C90"/>
<path transform="translate(433,459)" d="m0 0 7 1 5 2v1h-8l-4-2z" fill="#BAD69E"/>
<path transform="translate(518,183)" d="m0 0 7 6 5 5-1 3-11-12z" fill="#18317E"/>
<path transform="translate(442,759)" d="m0 0 10 6 4 2-3 1-8-4-3-3z" fill="#AFC0DD"/>
<path transform="translate(536,488)" d="m0 0 6 1 8 4v2l-5-2-9-4z" fill="#173B84"/>
</svg>
